<svg xmlns="http://www.w3.org/2000/svg" viewBox="0 0 76.28 51.4"><defs><style>.cls-1{fill:#1d1d1b;}</style></defs><g id="Calque_2" data-name="Calque 2"><g id="Calque_1-2" data-name="Calque 1"><path class="cls-1" d="M52,32.57H46.7L28.55,46.74l-18.87-15A16.47,16.47,0,0,1,3.75,20.53,16,16,0,0,1,7.18,8.64c.24-.29.5-.57.76-.85a13.15,13.15,0,0,1,9.45-4.13h.26a13.26,13.26,0,0,1,9.61,4.59l1.37,1.52L30,8.25a13.28,13.28,0,0,1,9.62-4.59,13.13,13.13,0,0,1,9.7,4.13c.27.28.52.56.76.85A16,16,0,0,1,53.5,20.53a17.38,17.38,0,0,1-1.73,6h4a21.34,21.34,0,0,0,1.38-5.65c.05-.5.08-1,.09-1.49a1.48,1.48,0,0,1-1.07.45,1.5,1.5,0,0,1-1.5-1.5,11.14,11.14,0,0,1,1.62-5.8,18.3,18.3,0,0,0-3.41-6.27c-.3-.36-.61-.71-.94-1a16.49,16.49,0,0,0-23.31-.81,16.49,16.49,0,0,0-23.31.81c-.33.34-.65.69-1,1A19.69,19.69,0,0,0,.11,20.9a20.11,20.11,0,0,0,7.3,13.76L28.54,51.4,49.85,34.66A12.93,12.93,0,0,0,52,32.57Z"/><path class="cls-1" d="M50,29.39c-.15.19-.3.37-.47.55h4.58a6.26,6.26,0,0,0,.34-.55Z"/><path class="cls-1" d="M65.87,8A10.42,10.42,0,0,0,55.45,18.36a.72.72,0,0,0,1.44,0,8.85,8.85,0,0,1,.23-2h0a9,9,0,1,1,8.75,11H37.35a.72.72,0,1,0,0,1.43H65.87A10.41,10.41,0,0,0,65.87,8Z"/><path class="cls-1" d="M57.28,30.38H39.93a.75.75,0,0,0-.77.75.77.77,0,0,0,.77.77H57.28a6.52,6.52,0,1,1-6.53,6.52.75.75,0,0,0-.75-.76.77.77,0,0,0-.77.76,8,8,0,1,0,8.05-8Z"/><path class="cls-1" d="M45.49,24.72H38.36a.7.7,0,0,0-.71.7.71.71,0,0,0,.71.71h7.13a5.82,5.82,0,1,0-5.81-5.81.7.7,0,0,0,.71.7.7.7,0,0,0,.7-.7,4.4,4.4,0,1,1,4.4,4.4Z"/></g></g></svg>