<svg xmlns="http://www.w3.org/2000/svg" viewBox="0 0 148.06 140.95"><defs><style>.cls-1{fill:#1d1d1b;}</style></defs><g id="Calque_2" data-name="Calque 2"><g id="Calque_1-2" data-name="Calque 1"><path class="cls-1" d="M123.79,111H106.67c2-1.43,4.09-3,6.19-4.7C125,96.51,130,88.78,128.22,82.64,124.77,71,101.33,50.33,98.66,48l-2.93-2.55L93.5,48.64A84.92,84.92,0,0,0,82.71,72c-4.57,16.18-2.57,30.54,5.72,41.86a89.51,89.51,0,0,0-8.94,5,10,10,0,0,1-10.55,0,85.34,85.34,0,0,0-9.26-5C67.93,102.49,69.92,88.15,65.35,72A84.59,84.59,0,0,0,54.56,48.64l-2.23-3.18L49.4,48c-2.66,2.32-26.11,23-29.56,34.63C18,88.78,23.05,96.51,35.21,106.27c2.09,1.68,4.2,3.27,6.19,4.7H24.27C10.89,111,0,117.69,0,126s10.89,15,24.27,15H48.92c1.51,0,3.32-.66,6.33-1.75,4.73-1.71,11.89-4.31,18.78-4.31s14.14,2.61,18.89,4.34c3,1.07,4.74,1.72,6.22,1.72h24.65c13.39,0,24.27-6.72,24.27-15S137.18,111,123.79,111ZM97.14,56c8.08,7.39,22.25,21.41,24.37,28.59,1.41,4.74-12.3,16.87-26.77,26C79.46,91.05,91.86,65.19,97.14,56ZM26.55,84.63C28.68,77.45,42.84,63.43,50.92,56c5.29,9.15,17.69,35,2.4,54.61C38.85,101.5,25.15,89.37,26.55,84.63ZM123.79,134H99.23a36.71,36.71,0,0,1-3.92-1.3c-5.21-1.9-13.09-4.76-21.28-4.76s-16,2.85-21.17,4.73a36.1,36.1,0,0,1-4,1.33H24.27C14.25,134,7,129.18,7,126s7.25-8,17.27-8H48.92a14.17,14.17,0,0,1,4.17.75l1.88.67a70.64,70.64,0,0,1,10.32,5.43,17,17,0,0,0,17.88,0,69.65,69.65,0,0,1,10-5.37l1.68-.63a14.23,14.23,0,0,1,4.32-.84h24.65c10,0,17.27,4.77,17.27,8S133.81,134,123.79,134Z"/><path class="cls-1" d="M74,39.17A19.59,19.59,0,1,0,54.45,19.58,19.61,19.61,0,0,0,74,39.17ZM74,7A12.59,12.59,0,1,1,61.45,19.58,12.59,12.59,0,0,1,74,7Z"/></g></g></svg>