<svg xmlns="http://www.w3.org/2000/svg" viewBox="0 0 138.47 122.62"><defs><style>.cls-1{fill:#1d1d1b;}</style></defs><g id="Calque_2" data-name="Calque 2"><g id="Calque_2-2" data-name="Calque 2"><path class="cls-1" d="M115.23,82.81a130.42,130.42,0,0,1-32.14,3.73c-19.68,0-36.81-3.69-47.33-9.47C14.72,81.15,0,89.31,0,98.47c0,13.1,30.09,24.15,65.69,24.15s65.69-11.05,65.69-24.15C131.38,92.55,125.24,87.06,115.23,82.81Z"/><path class="cls-1" d="M93.22,43.46C85.38,48.07,72.22,51,57,51A106.32,106.32,0,0,1,41.87,50c-8.76,3.59-14.16,8.28-14.16,13.34,0,3.83,3.1,7.46,8.42,10.55.68.4,1.41.79,2.17,1.18s1.61.77,2.47,1.15C51,80.65,66.33,83.54,83.09,83.54a133.29,133.29,0,0,0,27-2.67c1-.2,1.89-.41,2.8-.63s1.72-.42,2.55-.65c13.83-3.71,23-9.68,23-16.27C138.47,53.62,118.6,45.26,93.22,43.46Z"/><path class="cls-1" d="M41.45,46.9c1,.17,2.09.31,3.17.43,1.23.15,2.49.27,3.78.37C51.14,47.92,54,48,57,48c12.5,0,22.9-2,30.08-4.86,1.11-.45,2.13-.92,3.08-1.4a26.66,26.66,0,0,0,2.4-1.37c3.44-2.19,5.32-4.65,5.32-7,0-4.73-7.3-9.68-19.42-12.45A71,71,0,0,1,65.69,22,62.42,62.42,0,0,1,46.17,19.2h0c-18.34,1.83-30,8.17-30,14.15C16.13,38.8,25.84,44.55,41.45,46.9Z"/><path class="cls-1" d="M46.64,16.15a37,37,0,0,0,4.09,1.2A57.88,57.88,0,0,0,59,18.69c2,.19,4.2.29,6.46.3h.2A71.7,71.7,0,0,0,74,18.52c1.55-.18,3-.41,4.43-.68C87.39,16.1,93,12.67,93,9.5,93,5,81.78,0,65.69,0s-27.3,5-27.3,9.5C38.39,11.84,41.44,14.32,46.64,16.15Z"/></g></g></svg>