<svg xmlns="http://www.w3.org/2000/svg" width="316.833" height="151.258" viewBox="0 0 316.833 151.258"><g transform="translate(-4540.583 10834.757)"><path d="M146.154,120.664c0-11.225,18.038-21.224,43.82-26.223,12.891,7.083,33.882,11.6,58,11.6a159.812,159.812,0,0,0,39.384-4.571c12.266,5.208,19.79,11.936,19.79,19.19,0,16.052-36.86,29.594-80.5,29.594S146.154,136.716,146.154,120.664Zm49.959-27.289c-1.054-.466-2.071-.931-3.027-1.409-.931-.478-1.826-.956-2.659-1.446-6.52-3.786-10.318-8.234-10.318-12.928,0-6.2,6.618-11.948,17.352-16.347a130.262,130.262,0,0,0,18.564,1.287c18.626,0,34.753-3.628,44.359-9.276,31.1,2.2,55.449,12.45,55.449,24.336,0,8.076-11.225,15.391-28.172,19.937-1.017.282-2.058.552-3.125.8-1.115.27-2.267.527-3.431.772a163.342,163.342,0,0,1-33.134,3.271C227.434,102.369,208.673,98.828,196.113,93.375ZM97.607,78.884a8.708,8.708,0,0,1-2.573-6.557q0-7.636,8.092-15.023t16.394-7.387q5.478,0,5.478,4.317,0,4.481-5.768,9.046T103,71.58a6.283,6.283,0,0,0,2.324,2.99,5.669,5.669,0,0,0,3.237,1.078q3.567,0,9.711-4.068l1.909,1.494a20.006,20.006,0,0,1-7.055,5.936,18.628,18.628,0,0,1-8.716,2.365A9.373,9.373,0,0,1,97.607,78.884Zm10.167-19.878a18.224,18.224,0,0,0-5.187,10.084,44.044,44.044,0,0,0,11.536-5.81q4.813-3.486,4.814-6.391a2.839,2.839,0,0,0-2.739-2.738Q112.3,54.151,107.774,59.006ZM66.4,73.655l3.154-2.241q1.161.915,2.49,2.2A23.59,23.59,0,0,0,74.035,75.4a5.11,5.11,0,0,0,3.486,1.409,4.61,4.61,0,0,0,3.32-1.369,4.551,4.551,0,0,0,1.411-3.4q0-2.03-3.611-7.594t-3.61-7.8a6.921,6.921,0,0,1,3.443-6.224,16.854,16.854,0,0,1,9.048-2.158q5.6,0,7.179.664l-.747,3.236a32.652,32.652,0,0,0-3.651-.166q-8.3,0-8.3,5.478,0,1.162,3.362,6.806t3.361,7.553A8.644,8.644,0,0,1,85.7,78.843,12.213,12.213,0,0,1,77.6,81.374Q70.632,81.374,66.4,73.655ZM51.294,76.227A16.752,16.752,0,0,1,52.539,70.5l-3.072,3.154A30.265,30.265,0,0,1,41.707,79.8a14.777,14.777,0,0,1-6.432,1.578A6.115,6.115,0,0,1,30.5,79.59a7.084,7.084,0,0,1-1.618-4.938q0-5.81,4.482-11.5A34.175,34.175,0,0,1,44.82,53.9a31.2,31.2,0,0,1,13.943-3.652l.167,2.74-3.487.747a29.88,29.88,0,0,0-13.322,6.639q-5.769,4.98-5.769,9.92t3.985,4.937q3.735,0,9.213-5.229A46.179,46.179,0,0,0,58.68,57.719l3.487,2.075q-5.148,10.377-5.146,13.2a2.647,2.647,0,0,0,.788,1.95,2.271,2.271,0,0,0,1.579.789,3.972,3.972,0,0,0,1.037-.084,3.653,3.653,0,0,0,.5-.208,5.885,5.885,0,0,0,.622-.373,7.087,7.087,0,0,0,.664-.5c.193-.166.512-.415.955-.747s.8-.607,1.079-.83L66.151,74.4a12.718,12.718,0,0,1-4.275,4.731,10.019,10.019,0,0,1-5.685,2.241Q51.294,81.374,51.294,76.227ZM2.573,78.884A8.7,8.7,0,0,1,0,72.327Q0,64.691,8.092,57.3t16.394-7.387q5.477,0,5.477,4.317,0,4.481-5.768,9.046T7.968,71.58a6.29,6.29,0,0,0,2.325,2.99,5.666,5.666,0,0,0,3.236,1.078q3.567,0,9.711-4.068l1.909,1.494a20,20,0,0,1-7.055,5.936,18.625,18.625,0,0,1-8.715,2.365A9.372,9.372,0,0,1,2.573,78.884ZM12.74,59.006A18.22,18.22,0,0,0,7.553,69.09,44.064,44.064,0,0,0,19.09,63.28Q23.9,59.794,23.9,56.889a2.839,2.839,0,0,0-2.739-2.738Q17.264,54.151,12.74,59.006Zm192.722-.554c-1.581-.122-3.125-.27-4.632-.454-1.323-.148-2.623-.319-3.884-.527-19.129-2.879-31.027-9.925-31.027-16.6,0-7.328,14.324-15.1,36.8-17.339h.012a76.513,76.513,0,0,0,23.92,3.418,86.992,86.992,0,0,0,15.673-1.336c14.852,3.395,23.8,9.46,23.8,15.256,0,2.941-2.3,5.956-6.519,8.639a32.6,32.6,0,0,1-2.941,1.679c-1.164.588-2.414,1.164-3.774,1.715-8.8,3.529-21.542,5.955-36.86,5.955C212.35,58.856,208.82,58.721,205.463,58.451ZM226.4,23.27c-2.77-.013-5.416-.135-7.916-.368a70.9,70.9,0,0,1-10.171-1.642,45.441,45.441,0,0,1-5.012-1.471c-6.372-2.243-10.109-5.281-10.109-8.149C193.2,6.139,206.945,0,226.65,0S260.1,6.139,260.1,11.642c0,3.884-6.862,8.087-17.866,10.219-1.7.331-3.53.613-5.429.833a87.949,87.949,0,0,1-10.158.576Z" transform="translate(4541.083 -10834.257)" fill="#343434"/><path d="M226.65,150.758a199.112,199.112,0,0,1-31.06-2.373,137.479,137.479,0,0,1-25.72-6.435c-7.513-2.761-13.434-5.961-17.6-9.509a21.954,21.954,0,0,1-4.883-5.648,12.255,12.255,0,0,1-1.736-6.129,13.418,13.418,0,0,1,3.332-8.444,33.279,33.279,0,0,1,9.157-7.434c7.821-4.58,18.8-8.327,31.736-10.837l.178-.034.158.087c13.35,7.336,34.4,11.543,57.757,11.543a159.764,159.764,0,0,0,39.259-4.555l.164-.043.156.066c6.29,2.671,11.217,5.674,14.644,8.925,3.617,3.432,5.451,7.04,5.451,10.725a12.258,12.258,0,0,1-1.735,6.129,21.952,21.952,0,0,1-4.882,5.648c-4.163,3.549-10.083,6.748-17.6,9.509a137.449,137.449,0,0,1-25.719,6.435A199.154,199.154,0,0,1,226.65,150.758ZM189.892,94.966c-12.754,2.488-23.554,6.18-31.244,10.683-7.847,4.595-11.994,9.787-11.994,15.015,0,3.765,2.109,7.471,6.267,11.016,4.074,3.472,9.892,6.611,17.294,9.332,15.347,5.64,35.389,8.747,56.435,8.747s41.093-3.106,56.439-8.747c7.4-2.72,13.219-5.86,17.292-9.332,4.158-3.544,6.266-7.25,6.266-11.016,0-6.715-6.863-13.339-19.33-18.663a161,161,0,0,1-39.344,4.545c-5.937,0-11.815-.276-17.471-.819a152.536,152.536,0,0,1-15.837-2.337,112.178,112.178,0,0,1-13.742-3.674A71.372,71.372,0,0,1,189.892,94.966Zm58.08,7.9a166.571,166.571,0,0,1-29.008-2.46,105.554,105.554,0,0,1-23.05-6.575c-1.241-.549-2.21-1-3.051-1.421l0,0c-1.085-.557-1.938-1.021-2.684-1.46-6.911-4.013-10.565-8.633-10.565-13.358,0-3.172,1.619-6.273,4.812-9.216a43.166,43.166,0,0,1,12.851-7.593l.126-.052.135.02a129.676,129.676,0,0,0,18.493,1.282c17.812,0,34.3-3.442,44.106-9.207l.134-.079.155.011c15.233,1.08,29.279,4.126,39.551,8.577a40.3,40.3,0,0,1,11.919,7.39c2.949,2.84,4.444,5.823,4.444,8.867a10.746,10.746,0,0,1-2.108,6.168,22.88,22.88,0,0,1-5.838,5.535c-4.931,3.411-12.053,6.425-20.6,8.716-1.127.312-2.155.574-3.14.8-1.057.256-2.215.517-3.442.775A164.618,164.618,0,0,1,247.972,102.869ZM193.313,91.52c.826.413,1.781.857,3,1.4,13.1,5.688,31.931,8.951,51.657,8.951A163.6,163.6,0,0,0,281,98.608c1.218-.256,2.367-.515,3.416-.769h.006c.971-.223,1.986-.482,3.1-.791,8.438-2.263,15.453-5.228,20.29-8.574,4.917-3.4,7.515-7.163,7.515-10.881,0-5.488-5.6-10.935-15.761-15.34-10.136-4.392-24.006-7.4-39.07-8.487A65.255,65.255,0,0,1,241.692,60.5a125.309,125.309,0,0,1-25.666,2.531,130.793,130.793,0,0,1-18.5-1.273A42.011,42.011,0,0,0,185.1,69.111c-2.979,2.746-4.489,5.6-4.489,8.481,0,4.349,3.482,8.669,10.07,12.5C191.41,90.518,192.246,90.973,193.313,91.52Zm-88.9-9.646a9.893,9.893,0,0,1-7.154-2.631,9.228,9.228,0,0,1-2.725-6.917,16.388,16.388,0,0,1,2.083-7.81,29.458,29.458,0,0,1,6.172-7.582,31.962,31.962,0,0,1,8.277-5.627,20.5,20.5,0,0,1,8.454-1.891,7.059,7.059,0,0,1,4.418,1.187,4.361,4.361,0,0,1,1.56,3.63A8.853,8.853,0,0,1,123.976,59a19.7,19.7,0,0,1-4.437,4.667c-3.78,2.99-9.116,5.747-15.867,8.2a5.709,5.709,0,0,0,1.935,2.287,5.207,5.207,0,0,0,2.955.991c2.269,0,5.443-1.341,9.435-3.985l.3-.2,2.571,2.012-.281.39a20.594,20.594,0,0,1-7.227,6.085A19.2,19.2,0,0,1,104.413,81.874Zm15.106-31.458c-5.377,0-10.779,2.441-16.057,7.257-5.261,4.806-7.929,9.736-7.929,14.653a8.265,8.265,0,0,0,2.421,6.2,8.93,8.93,0,0,0,6.458,2.35,18.218,18.218,0,0,0,8.482-2.307,19.838,19.838,0,0,0,6.6-5.4l-1.242-.972c-4.071,2.659-7.242,3.953-9.686,3.953a6.186,6.186,0,0,1-3.52-1.165,6.8,6.8,0,0,1-2.507-3.221l-.187-.48.485-.173c6.886-2.459,12.3-5.225,16.085-8.221,3.7-2.93,5.578-5.842,5.578-8.654a3.372,3.372,0,0,0-1.179-2.845A6.129,6.129,0,0,0,119.519,50.417ZM77.6,81.874a11.366,11.366,0,0,1-6.571-2.018A16.216,16.216,0,0,1,66.5,74.829a13.531,13.531,0,0,1-4.332,4.71,10.533,10.533,0,0,1-5.977,2.335,5.335,5.335,0,0,1-4.035-1.442,5.905,5.905,0,0,1-1.362-4.205,14.437,14.437,0,0,1,.6-3.828L49.826,74a30.881,30.881,0,0,1-7.9,6.243,15.343,15.343,0,0,1-6.649,1.627,6.616,6.616,0,0,1-5.143-1.949,7.6,7.6,0,0,1-1.748-5.274c0-3.97,1.544-7.942,4.589-11.806a34.825,34.825,0,0,1,11.619-9.389,31.834,31.834,0,0,1,14.165-3.707l.476-.006.223,3.644-3.907.837a29.525,29.525,0,0,0-13.1,6.529c-3.713,3.206-5.6,6.416-5.6,9.541a5.375,5.375,0,0,0,.885,3.389,3.116,3.116,0,0,0,2.6,1.049c2.346,0,5.33-1.713,8.868-5.091a45.9,45.9,0,0,0,9.03-12.152l.244-.471L62.82,59.6l-.206.415c-3.38,6.815-5.094,11.18-5.094,12.975a2.146,2.146,0,0,0,.642,1.6,1.818,1.818,0,0,0,1.225.643,3.494,3.494,0,0,0,.876-.057l.006,0a3.166,3.166,0,0,0,.429-.18,5.419,5.419,0,0,0,.567-.341,6.648,6.648,0,0,0,.618-.464c.2-.168.517-.419.979-.767s.8-.607,1.066-.82l.3-.241,1.534,1.134,3.805-2.7.294.232c.789.622,1.639,1.373,2.528,2.232A23.282,23.282,0,0,0,74.335,75l.033.027a4.587,4.587,0,0,0,3.152,1.282,4.094,4.094,0,0,0,2.972-1.228,4.038,4.038,0,0,0,1.259-3.045c0-.86-.612-2.828-3.53-7.322-2.483-3.824-3.691-6.465-3.691-8.074a7.422,7.422,0,0,1,3.678-6.648,17.41,17.41,0,0,1,9.313-2.235c3.836,0,6.247.23,7.373.7l.388.163-.942,4.083-.445-.052a32.322,32.322,0,0,0-3.593-.162c-5.249,0-7.8,1.628-7.8,4.978,0,.382.428,1.741,3.291,6.55,2.309,3.879,3.432,6.433,3.432,7.809a9.158,9.158,0,0,1-3.209,7.4A12.749,12.749,0,0,1,77.6,81.874ZM67.055,73.8c2.72,4.757,6.175,7.072,10.549,7.072a11.787,11.787,0,0,0,7.771-2.415,8.1,8.1,0,0,0,2.85-6.63c0-.807-.571-2.728-3.291-7.3C81.893,59.424,81.5,58.075,81.5,57.47a5.087,5.087,0,0,1,2.3-4.526,11.929,11.929,0,0,1,6.5-1.452c1.279,0,2.373.041,3.263.123l.546-2.366a27.837,27.837,0,0,0-6.591-.491,16.446,16.446,0,0,0-8.782,2.082,6.4,6.4,0,0,0-3.209,5.8c0,.956.612,3.038,3.529,7.53,2.484,3.826,3.691,6.4,3.691,7.867A5.056,5.056,0,0,1,81.189,75.8a5.116,5.116,0,0,1-3.668,1.51,5.613,5.613,0,0,1-3.8-1.522,24.462,24.462,0,0,1-2.023-1.815c-.755-.73-1.48-1.378-2.16-1.931Zm-13.21-5.358-.838,2.233a16.348,16.348,0,0,0-1.214,5.55,4.967,4.967,0,0,0,1.087,3.516,4.393,4.393,0,0,0,3.31,1.131,9.587,9.587,0,0,0,5.393-2.147,12.811,12.811,0,0,0,3.932-4.173l-1.264-.934c-.221.172-.482.371-.789.6-.445.333-.748.571-.929.726a7.634,7.634,0,0,1-.712.535,6.376,6.376,0,0,1-.677.4,4.171,4.171,0,0,1-.565.236,3.88,3.88,0,0,1-1.192.108,2.757,2.757,0,0,1-1.932-.936,3.141,3.141,0,0,1-.935-2.3c0-1.939,1.634-6.194,4.993-13l-2.636-1.569A46.778,46.778,0,0,1,49.9,70.365a27.175,27.175,0,0,1-5.141,4,9.142,9.142,0,0,1-4.418,1.372c-2.046,0-4.485-.943-4.485-5.437a10.311,10.311,0,0,1,1.51-5.2A20.7,20.7,0,0,1,41.8,60a30.518,30.518,0,0,1,13.541-6.749L58.4,52.59l-.112-1.831a31.027,31.027,0,0,0-13.245,3.588,33.833,33.833,0,0,0-11.289,9.118c-2.9,3.684-4.375,7.447-4.375,11.187a6.639,6.639,0,0,0,1.489,4.6,5.669,5.669,0,0,0,4.4,1.62,14.355,14.355,0,0,0,6.216-1.528A29.952,29.952,0,0,0,49.111,73.3ZM9.379,81.874a9.89,9.89,0,0,1-7.154-2.631A9.225,9.225,0,0,1-.5,72.327a16.388,16.388,0,0,1,2.083-7.81,29.458,29.458,0,0,1,6.172-7.582,31.962,31.962,0,0,1,8.277-5.627,20.5,20.5,0,0,1,8.454-1.891A7.057,7.057,0,0,1,28.9,50.6a4.361,4.361,0,0,1,1.56,3.63A8.854,8.854,0,0,1,28.942,59a19.7,19.7,0,0,1-4.437,4.667c-3.779,2.99-9.115,5.747-15.867,8.2a5.716,5.716,0,0,0,1.936,2.287,5.2,5.2,0,0,0,2.954.991c2.269,0,5.443-1.341,9.435-3.985l.3-.2,2.571,2.012-.281.39a20.584,20.584,0,0,1-7.227,6.085A19.2,19.2,0,0,1,9.379,81.874ZM24.485,50.417c-5.377,0-10.779,2.441-16.057,7.257C3.168,62.479.5,67.409.5,72.327a8.157,8.157,0,0,0,2.421,6.2,8.927,8.927,0,0,0,6.458,2.35,18.217,18.217,0,0,0,8.481-2.307,19.829,19.829,0,0,0,6.6-5.4l-1.242-.972c-4.071,2.659-7.242,3.953-9.686,3.953a6.18,6.18,0,0,1-3.519-1.166A6.811,6.811,0,0,1,7.5,71.762l-.188-.48.485-.173c6.887-2.459,12.3-5.225,16.085-8.221,3.7-2.93,5.578-5.842,5.578-8.654a3.372,3.372,0,0,0-1.179-2.845A6.127,6.127,0,0,0,24.485,50.417Zm77.5,19.409.1-.8a18.787,18.787,0,0,1,5.317-10.362,19.987,19.987,0,0,1,4.484-3.733,8.658,8.658,0,0,1,4.307-1.28,3.338,3.338,0,0,1,3.239,3.238,5.641,5.641,0,0,1-1.3,3.351,17.516,17.516,0,0,1-3.716,3.445,44.749,44.749,0,0,1-11.666,5.878ZM116.2,54.651c-2.444,0-5.156,1.58-8.059,4.7a18.328,18.328,0,0,0-4.928,8.992,43.046,43.046,0,0,0,10.618-5.464c3.057-2.214,4.607-4.228,4.607-5.986a2.341,2.341,0,0,0-2.239-2.238ZM6.956,69.826l.1-.8a18.783,18.783,0,0,1,5.318-10.363,19.988,19.988,0,0,1,4.484-3.733,8.658,8.658,0,0,1,4.306-1.28A3.338,3.338,0,0,1,24.4,56.889a5.641,5.641,0,0,1-1.3,3.351,17.515,17.515,0,0,1-3.716,3.445A44.768,44.768,0,0,1,7.716,69.563Zm14.21-15.174c-2.444,0-5.156,1.58-8.059,4.7a18.322,18.322,0,0,0-4.929,8.992A43.068,43.068,0,0,0,18.8,62.875c3.057-2.214,4.607-4.228,4.607-5.986a2.34,2.34,0,0,0-2.239-2.238Zm194.86,4.7c-3.677,0-7.244-.136-10.6-.406-1.681-.13-3.2-.279-4.65-.455s-2.724-.335-3.905-.53c-9.241-1.391-17.142-3.789-22.849-6.933A22.79,22.79,0,0,1,167.7,46.2a8.235,8.235,0,0,1-2.279-5.333c0-3.863,3.641-7.779,10.251-11.025a61.4,61.4,0,0,1,11.692-4.173,102.745,102.745,0,0,1,15.306-2.638l.061,0h.082l.078.026a75.758,75.758,0,0,0,23.76,3.392,86.372,86.372,0,0,0,15.582-1.327l.1-.019.1.023c7.251,1.657,13.347,4.007,17.629,6.8s6.556,5.887,6.556,8.947a7.827,7.827,0,0,1-1.78,4.718,18.9,18.9,0,0,1-4.97,4.343,33.21,33.21,0,0,1-2.984,1.7c-1.262.637-2.509,1.2-3.811,1.732C243.439,57.228,230.282,59.356,216.025,59.356Zm-13.356-35.32c-10.47,1.053-19.9,3.433-26.558,6.7a25.248,25.248,0,0,0-7.239,4.986,7.649,7.649,0,0,0-2.453,5.142c0,3.119,2.87,6.418,8.081,9.289,5.605,3.088,13.392,5.447,22.52,6.821h.007c1.165.193,2.427.364,3.858.524h0c1.434.175,2.942.322,4.61.451,3.333.267,6.873.4,10.524.4,14.133,0,27.157-2.1,36.674-5.919,1.275-.517,2.5-1.073,3.734-1.7a32.226,32.226,0,0,0,2.9-1.653,17.926,17.926,0,0,0,4.712-4.1,6.859,6.859,0,0,0,1.578-4.115c0-2.706-2.11-5.51-6.1-8.109-4.165-2.712-10.113-5.006-17.206-6.636a87.5,87.5,0,0,1-15.662,1.325A76.918,76.918,0,0,1,202.669,24.035Zm23.98-.265H226.4c-2.785-.013-5.463-.137-7.963-.37A71.354,71.354,0,0,1,208.2,21.747a46.067,46.067,0,0,1-5.065-1.486,26.149,26.149,0,0,1-7.588-3.921c-1.865-1.507-2.851-3.131-2.851-4.7,0-3,3.521-6.039,9.661-8.352C208.845.846,217.472-.5,226.65-.5s17.811,1.346,24.3,3.789c6.137,2.312,9.657,5.357,9.657,8.352,0,2.127-1.748,4.27-5.055,6.2a43.26,43.26,0,0,1-13.216,4.512c-1.733.337-3.572.619-5.466.839A88.573,88.573,0,0,1,226.65,23.77Zm0-23.27c-9.06,0-17.562,1.323-23.939,3.725-5.644,2.126-9.014,4.9-9.014,7.416,0,1.254.857,2.609,2.479,3.92a25.181,25.181,0,0,0,7.3,3.757,45.115,45.115,0,0,0,4.961,1.456,70.374,70.374,0,0,0,10.1,1.63c2.471.23,5.12.353,7.873.366h.243a87.575,87.575,0,0,0,10.1-.573c1.869-.217,3.683-.5,5.391-.828a42.278,42.278,0,0,0,12.9-4.394c2.94-1.715,4.559-3.609,4.559-5.335,0-2.518-3.368-5.291-9.009-7.416C244.218,1.823,235.715.5,226.65.5Z" transform="translate(4541.083 -10834.257)" fill="rgba(0,0,0,0)"/></g></svg>